<?xml version="1.0" standalone="no"?>
<!DOCTYPE svg PUBLIC "-//W3C//DTD SVG 20010904//EN"
 "http://www.w3.org/TR/2001/REC-SVG-20010904/DTD/svg10.dtd">
<svg version="1.0" xmlns="http://www.w3.org/2000/svg"
 width="512.000000pt" height="512.000000pt" viewBox="0 0 512.000000 512.000000"
 preserveAspectRatio="xMidYMid meet">
<metadata>
Created by potrace 1.11, written by Peter Selinger 2001-2013
</metadata>
<g transform="translate(0.000000,512.000000) scale(0.100000,-0.100000)"
fill="#000000" stroke="none">
<path d="M993 4792 c-47 -42 -141 -212 -167 -302 -8 -30 -23 -82 -32 -115 -9
-33 -23 -79 -30 -102 -39 -122 -94 -454 -94 -568 0 -79 3 -94 20 -110 11 -10
20 -22 20 -27 0 -18 66 -76 103 -91 30 -13 37 -21 37 -44 0 -15 5 -35 10 -43
8 -12 10 -10 11 10 0 16 8 1 21 -39 13 -42 23 -60 28 -51 5 9 13 2 25 -23 28
-59 89 -121 154 -156 33 -17 63 -37 67 -43 4 -5 7 -86 7 -179 l0 -169 -39 -57
c-21 -32 -42 -69 -46 -82 -11 -36 11 -121 43 -168 20 -28 29 -54 29 -80 l0
-38 -21 25 -21 25 6 -60 6 -60 -20 30 -20 30 2 -30 c1 -16 1 -50 -1 -75 -2
-43 -2 -44 -15 -21 -12 22 -14 17 -14 -54 -1 -55 -6 -85 -18 -103 -19 -29 -23
-50 -30 -155 -7 -110 31 -206 157 -393 78 -116 80 -117 207 -116 117 1 187 17
271 63 47 26 54 30 116 71 40 25 142 127 223 223 l43 50 -5 -35 c-3 -19 -8
-66 -11 -105 -7 -81 -8 -87 -34 -260 -30 -201 -35 -266 -21 -326 6 -30 14 -67
16 -84 3 -16 26 -73 51 -125 l46 -95 -6 -110 c-6 -99 -28 -240 -40 -252 -3 -2
-14 0 -24 6 -15 7 -33 3 -80 -19 -53 -25 -113 -78 -113 -99 0 -15 -40 -47
-119 -96 -81 -51 -88 -59 -105 -137 l-6 -28 105 0 c87 0 105 3 105 15 0 9 16
23 35 32 19 9 35 20 35 25 0 4 12 8 26 8 21 0 24 -4 19 -20 -3 -11 -3 -29 0
-40 6 -19 15 -20 179 -20 136 0 176 3 192 15 25 19 38 19 30 0 -7 -18 20 -21
28 -2 5 9 7 9 12 -1 7 -16 2774 -18 2774 -2 0 6 -10 10 -22 10 -13 0 -34 3
-47 7 -17 4 -22 3 -17 -5 5 -8 1 -10 -9 -6 -23 9 -7 22 45 37 24 7 46 19 48
26 3 8 0 11 -6 7 -6 -3 -13 0 -15 6 -4 9 -6 9 -6 1 -1 -6 -10 -9 -21 -6 -16 4
-19 2 -14 -13 5 -17 4 -17 -8 -3 -7 9 -26 19 -43 24 -21 6 -25 9 -12 12 19 5
22 18 6 29 -8 4 -7 9 2 15 21 13 32 11 25 -6 -3 -8 -1 -15 4 -15 12 0 13 20 2
37 -5 7 -13 9 -21 3 -19 -11 -43 14 -34 36 4 12 3 15 -5 10 -11 -6 -17 5 -13
26 0 5 -4 8 -9 8 -13 0 -13 37 0 45 6 4 4 12 -5 21 -22 22 -19 32 15 49 17 9
30 20 30 26 0 6 4 8 9 5 5 -3 20 3 32 13 24 20 24 20 2 18 -12 0 -19 -5 -16
-11 4 -5 -1 -7 -10 -3 -25 9 -47 -2 -40 -21 4 -13 3 -14 -5 -3 -6 8 -15 10
-23 6 -22 -12 23 28 58 53 l32 23 -20 20 c-11 11 -24 18 -27 14 -4 -3 -1 -9 5
-13 8 -5 9 -13 3 -22 -8 -12 -10 -11 -10 5 -1 16 -4 14 -16 -10 -11 -22 -13
-24 -10 -7 2 12 0 20 -4 17 -5 -3 -11 -1 -15 5 -3 5 3 10 14 10 24 0 28 15 6
24 -8 3 -15 13 -15 22 0 14 2 15 17 3 14 -12 15 -12 9 0 -5 8 -3 17 5 22 11 7
11 9 1 9 -22 0 -60 120 -38 120 7 0 6 4 -3 9 -7 5 -15 30 -17 57 -2 37 -1 45
7 34 9 -12 9 -11 4 5 -4 11 -9 38 -11 59 -3 22 -9 44 -14 51 -6 7 -6 15 2 23
8 8 7 13 -4 17 -9 4 -14 14 -11 24 3 13 -4 21 -24 28 -36 13 -75 15 -68 2 4
-5 13 -9 21 -9 16 0 19 -16 5 -24 -5 -4 -12 0 -15 6 -2 7 -3 -9 -1 -37 4 -48
4 -49 -11 -25 -14 25 -15 24 -10 -15 8 -70 18 -104 31 -115 8 -6 11 -18 8 -26
-3 -8 0 -14 6 -14 6 0 11 -5 11 -11 0 -8 -4 -8 -14 0 -23 19 -66 3 -66 -25 0
-17 -6 -24 -20 -24 -19 0 -24 10 -21 38 1 8 -3 20 -10 29 -10 11 -10 16 -1 22
7 4 10 15 6 24 -3 10 0 24 7 33 12 14 13 28 10 79 -1 8 -6 15 -12 15 -5 0 -8
-4 -4 -9 3 -5 1 -13 -5 -16 -8 -5 -8 -11 0 -20 8 -10 8 -15 -1 -21 -8 -5 -9
-3 -4 6 6 9 4 12 -6 8 -12 -5 -15 2 -12 34 2 21 -4 52 -12 68 -19 36 -29 39
-23 6 5 -24 -17 -46 -47 -46 -8 0 -15 -5 -15 -12 0 -6 -2 -9 -5 -6 -3 3 0 17
6 31 9 20 9 30 1 40 -7 8 -10 33 -8 57 3 24 1 39 -3 32 -10 -17 -28 0 -36 35
-3 18 -13 33 -20 33 -16 0 -23 21 -23 69 -1 41 -5 45 -31 32 -16 -9 -22 -8
-31 8 -13 25 -13 44 0 36 6 -3 10 -2 10 4 0 5 -4 13 -10 16 -5 3 -10 11 -10
16 0 6 5 7 10 4 6 -3 10 -1 10 4 0 6 -4 11 -8 11 -5 0 -9 18 -10 41 -2 47 -9
62 -24 53 -7 -5 -9 -2 -6 7 7 17 -18 43 -27 29 -3 -6 -3 -16 2 -22 10 -17 12
-58 2 -58 -4 0 -11 4 -14 10 -3 5 -1 10 6 10 8 0 6 5 -5 13 -15 11 -15 16 -4
42 8 18 22 31 36 33 22 3 31 -13 11 -20 -7 -2 -5 -9 6 -18 15 -12 16 -10 13
26 -2 30 -7 39 -20 38 -13 -1 -18 5 -18 22 0 15 -6 24 -15 24 -14 0 -20 17
-16 48 1 6 -3 12 -9 12 -6 0 -8 -4 -5 -10 3 -5 1 -10 -4 -10 -13 0 -15 27 -2
32 4 2 -6 13 -24 24 -30 20 -39 15 -23 -11 4 -6 2 -17 -4 -25 -8 -12 -9 -12
-4 2 3 10 1 18 -5 18 -6 0 -9 7 -6 15 4 8 2 17 -2 20 -5 3 -7 14 -4 24 3 10 0
22 -6 25 -5 4 -8 13 -4 21 3 9 -1 15 -11 15 -19 0 -21 -21 -3 -39 10 -10 9
-12 -3 -9 -8 2 -19 12 -24 23 -9 19 -10 19 -14 -3 -2 -13 4 -35 14 -50 10 -15
16 -28 13 -30 -2 -2 4 -8 14 -13 9 -6 17 -17 17 -26 0 -12 -7 -9 -25 11 -14
15 -25 23 -25 17 0 -5 4 -13 10 -16 13 -8 9 -75 -4 -75 -6 0 -19 12 -28 28
l-17 27 1 -38 c1 -21 4 -33 8 -26 6 8 9 8 14 0 4 -6 4 -11 0 -11 -4 0 1 -9 10
-19 17 -19 17 -19 -6 -15 -21 5 -22 4 -5 -9 9 -8 17 -17 17 -21 0 -14 -23 -4
-45 20 l-25 27 0 -24 c0 -13 -4 -28 -8 -34 -13 -18 -43 -17 -59 2 -8 10 -11
11 -7 3 6 -12 5 -13 -7 -3 -8 6 -26 14 -39 17 -40 8 -86 24 -72 25 6 1 12 5
12 10 0 6 -9 9 -19 8 -11 0 -17 -5 -15 -9 3 -4 1 -8 -5 -8 -5 0 -13 5 -16 10
-8 14 -35 13 -35 -1 0 -6 7 -9 15 -5 8 3 15 1 15 -4 0 -6 5 -10 10 -10 6 0 39
-13 73 -29 34 -16 80 -33 102 -37 38 -7 85 -42 85 -64 0 -6 -4 -8 -10 -5 -5 3
-10 12 -10 19 0 8 -6 14 -12 13 -35 -1 -59 4 -54 12 3 4 -14 14 -37 21 -23 8
-46 17 -52 20 -20 13 -46 20 -40 10 8 -13 -1 -13 -25 0 -13 7 -21 6 -30 -5 -9
-11 -23 -13 -51 -9 -25 4 -44 2 -54 -6 -9 -8 -28 -10 -56 -5 -28 5 -37 10 -28
15 7 5 21 4 30 -1 11 -5 20 -5 23 0 7 10 -41 24 -54 16 -6 -3 -7 1 -4 9 3 9
10 14 14 11 4 -3 34 10 66 28 55 29 66 32 154 32 52 1 101 4 108 9 18 11 5 26
-21 25 -20 -1 -20 -2 3 -9 17 -5 5 -7 -37 -6 -35 0 -63 3 -63 6 0 3 -20 4 -45
2 -25 -2 -42 -8 -39 -13 3 -5 -4 -9 -15 -9 -11 0 -22 -4 -25 -9 -3 -5 -16 -7
-29 -4 -18 4 -19 3 -7 -6 13 -9 13 -11 -1 -11 -9 0 -20 7 -23 16 -9 23 -8 26
7 18 9 -6 9 -4 0 7 -20 21 -15 36 13 43 21 6 23 10 14 21 -6 7 -22 12 -34 9
-18 -3 -23 0 -22 13 0 10 -7 19 -16 21 -21 4 -16 -20 11 -53 16 -20 15 -20 -5
-2 -11 9 -25 17 -30 17 -5 0 -10 26 -12 57 -2 62 -8 75 -22 53 -7 -10 -10 -11
-10 -2 0 7 -13 12 -30 12 -27 0 -29 -2 -20 -25 12 -31 -7 -43 -39 -26 -11 6
-31 11 -45 11 -27 0 -43 15 -26 25 5 3 10 1 10 -4 0 -6 6 -11 14 -11 15 0 12
66 -5 86 -6 8 -7 14 0 18 5 4 12 2 16 -4 9 -15 38 -13 29 3 -5 9 -4 9 6 0 10
-9 10 -15 -4 -28 -9 -9 -16 -21 -16 -26 0 -6 7 -4 15 5 12 12 22 13 42 5 14
-5 29 -7 32 -3 3 4 0 9 -6 11 -10 3 -9 9 3 21 11 11 13 17 5 20 -6 2 -8 9 -4
15 4 8 1 7 -9 -1 -19 -16 -50 -5 -46 17 1 9 0 21 -4 26 -15 25 -26 85 -16 85
6 0 9 3 5 6 -3 3 -15 3 -26 -1 -19 -6 -19 -8 -6 -21 8 -9 13 -20 10 -25 -4 -5
-1 -9 4 -9 6 0 11 -8 11 -17 0 -15 -2 -14 -14 2 -8 11 -12 23 -10 27 3 4 -2 5
-11 2 -17 -7 -14 -26 10 -76 13 -26 12 -27 -6 -18 -21 12 -34 50 -26 80 3 13
0 20 -10 20 -8 0 -12 3 -10 8 3 4 -3 24 -13 45 -10 20 -14 37 -8 37 6 0 5 7
-3 16 -16 19 -20 42 -9 49 11 7 26 -28 29 -65 0 -11 6 -20 12 -20 6 0 8 7 5
18 -4 10 4 5 17 -11 23 -26 25 -26 30 -7 4 14 0 20 -11 20 -14 1 -12 5 7 20
l23 20 -28 23 c-16 12 -35 21 -43 19 -10 -3 -10 1 3 13 16 16 18 16 32 -1 9
-11 13 -13 9 -6 -3 6 -2 12 4 12 5 0 11 -6 14 -12 2 -7 4 6 4 30 0 23 -4 45
-8 48 -5 3 -9 0 -9 -7 0 -7 -7 -4 -16 7 -15 18 -15 18 -5 -3 6 -12 16 -24 23
-26 10 -4 10 -6 0 -6 -7 -1 -10 -5 -7 -11 3 -5 1 -10 -4 -10 -6 0 -11 5 -11
11 0 5 -5 7 -12 3 -8 -5 -9 -2 -4 11 5 14 4 16 -7 6 -12 -9 -15 -4 -21 26 -11
69 -9 74 22 63 25 -9 26 -9 8 5 -18 13 -15 20 7 16 4 0 7 4 7 9 0 13 -17 13
-25 0 -13 -20 -32 -10 -29 16 2 20 0 23 -11 14 -10 -8 -15 -8 -21 1 -4 7 0 17
10 24 14 11 15 13 1 19 -9 3 -15 18 -15 35 0 20 -7 34 -19 41 -18 9 -19 7 -15
-17 5 -28 5 -28 -14 -8 -11 11 -18 23 -16 27 9 15 -10 38 -31 38 -43 0 -56 9
-42 31 8 13 9 22 2 27 -5 4 -10 12 -11 17 -3 42 -19 95 -30 99 -8 3 -11 0 -7
-10 3 -10 -2 -14 -18 -14 -22 0 -21 -2 8 -16 20 -10 31 -23 30 -35 -1 -10 -5
-19 -10 -19 -5 0 -7 6 -4 14 4 10 -5 19 -24 28 -26 11 -34 26 -30 51 0 4 -4 6
-11 5 -7 -2 -13 4 -14 12 0 8 -2 21 -2 28 -1 9 -10 11 -24 8 -13 -3 -17 -3
-10 0 6 3 12 21 12 40 0 20 -4 33 -9 30 -11 -7 -23 22 -15 35 3 5 1 9 -3 9 -5
0 -18 7 -29 16 -10 8 -13 13 -6 9 7 -4 12 0 12 9 0 8 -6 17 -12 19 -10 4 -10
6 0 6 6 1 12 6 12 13 0 6 -3 8 -6 5 -13 -13 -42 13 -37 32 3 10 0 22 -6 25 -6
4 -11 17 -12 29 0 12 -3 16 -6 9 -4 -10 -8 -9 -18 4 -12 17 -14 17 -39 1 -15
-10 -24 -22 -21 -27 9 -15 -11 -12 -24 3 -6 8 -7 18 -3 22 4 5 1 5 -6 1 -9 -5
-9 -12 -1 -27 6 -12 8 -23 5 -27 -3 -3 -6 0 -6 6 0 7 -7 12 -15 12 -20 0 -19
-6 5 -30 11 -11 20 -28 20 -37 -1 -17 -1 -17 -14 0 -7 9 -16 17 -20 17 -16 0
-33 26 -28 43 2 10 -3 26 -12 36 -9 10 -13 21 -9 25 4 4 -1 4 -12 0 -33 -13
-93 -81 -84 -95 11 -19 -8 -49 -31 -49 -26 0 -25 -12 0 -28 23 -14 27 -42 6
-42 -8 0 -16 3 -19 8 -2 4 -3 2 -1 -4 1 -6 -9 -19 -22 -29 -13 -10 -24 -24
-24 -31 0 -7 -9 -18 -19 -24 -24 -12 -34 -13 -27 -2 3 5 -8 16 -25 26 l-30 17
21 -33 c21 -35 26 -53 11 -44 -5 3 -12 -1 -15 -10 -6 -15 -8 -15 -25 0 -21 19
-28 13 -26 -21 2 -19 -1 -20 -24 -12 -14 6 -34 18 -43 26 -21 19 -22 11 -6
-34 6 -18 9 -35 6 -38 -9 -9 -65 22 -71 40 -4 8 -15 15 -26 15 -17 0 -20 -5
-14 -30 3 -18 1 -30 -5 -30 -6 0 -8 10 -4 23 5 19 3 20 -9 10 -9 -7 -30 -11
-47 -9 -26 4 -38 -3 -76 -41 -28 -27 -43 -50 -39 -59 3 -9 -3 -22 -16 -30 -26
-19 -27 -58 -2 -107 22 -44 8 -50 -17 -7 -24 42 -36 37 -28 -11 9 -55 24 -82
42 -75 9 3 12 1 9 -4 -11 -18 -25 -10 -46 25 -37 63 -47 25 -24 -92 4 -23 4
-24 -4 -8 -5 11 -13 29 -17 40 -6 18 -8 16 -13 -10 -4 -21 -13 -31 -29 -33
-12 -2 -22 -11 -22 -20 0 -9 -7 -26 -15 -36 -8 -11 -13 -28 -9 -38 4 -13 -2
-21 -20 -30 -14 -6 -26 -17 -26 -23 0 -7 -6 -18 -14 -25 -8 -6 -16 -21 -18
-33 -2 -12 -9 -21 -16 -19 -6 1 -12 -3 -12 -9 0 -6 -6 -9 -14 -6 -8 3 -16 -2
-19 -12 -2 -10 -19 -24 -36 -32 -33 -14 -35 -26 -16 -71 4 -11 3 -18 -4 -18
-6 0 -11 7 -11 15 0 8 -4 15 -9 15 -5 0 -16 3 -25 6 -11 4 -16 1 -16 -10 0
-11 -13 -18 -40 -22 -22 -4 -40 -12 -40 -18 0 -6 -21 -12 -48 -14 -26 -1 -49
-7 -50 -12 -6 -16 -58 -40 -87 -40 -14 0 -25 -4 -25 -9 0 -10 -38 -7 -48 4 -3
2 -11 0 -19 -6 -7 -7 -13 -7 -13 -2 0 10 43 33 63 33 7 0 21 7 31 15 19 15 19
15 -2 45 -12 16 -22 36 -22 44 0 8 -3 23 -7 33 -6 14 -9 10 -13 -17 -3 -21
-11 -34 -18 -32 -9 2 -12 -8 -10 -30 2 -20 8 -32 16 -30 6 1 12 -2 12 -8 0
-30 -47 7 -67 53 -15 32 -17 143 -4 151 5 3 14 -15 20 -40 11 -44 13 -45 30
-30 10 9 22 16 27 16 5 0 10 12 9 27 0 14 6 28 13 30 6 3 12 -2 12 -11 0 -9 4
-16 8 -16 17 0 52 42 52 62 0 15 5 19 20 15 20 -5 48 22 100 98 14 20 37 51
51 68 37 46 85 135 100 185 7 23 18 47 26 53 7 6 13 18 13 25 0 19 53 44 95
44 32 0 35 2 35 29 0 40 18 49 26 14 3 -15 10 -41 15 -57 14 -46 11 -86 -6
-86 -9 0 -20 10 -26 23 -7 16 -8 5 -4 -42 3 -35 7 -66 9 -68 12 -12 36 13 36
38 0 17 6 32 15 35 17 7 20 35 5 50 -6 6 -13 48 -16 95 -4 59 -3 80 5 69 5 -8
13 -32 16 -52 4 -21 10 -38 14 -38 5 0 6 -11 3 -25 -5 -29 8 -32 31 -7 22 24
21 38 -5 80 -15 24 -21 52 -22 93 -1 95 25 93 39 -5 4 -28 8 -63 8 -78 0 -33
17 -36 42 -8 17 18 17 21 -4 55 -21 36 -27 88 -15 133 11 39 22 24 29 -38 4
-33 12 -60 18 -60 7 0 7 -4 -1 -12 -27 -27 -9 -37 23 -12 16 12 17 16 6 24 -8
4 -16 17 -17 27 -4 24 16 103 26 103 4 0 10 -22 14 -50 4 -27 9 -50 12 -50 20
0 184 45 208 57 16 8 43 30 60 47 17 18 47 39 66 46 80 31 156 104 165 160 4
22 13 44 21 51 19 15 90 6 113 -15 21 -19 75 -16 110 5 20 13 25 30 22 75 -1
11 7 28 19 39 23 21 30 86 6 66 -11 -9 -15 -8 -20 4 -3 9 -2 13 3 10 5 -3 12
-1 16 5 3 5 -1 10 -10 10 -8 0 -18 6 -21 14 -3 8 -14 16 -25 19 -10 3 -17 1
-14 -3 7 -11 -12 -23 -24 -15 -6 3 -4 17 5 33 17 34 17 39 0 45 -10 4 -13 1
-9 -9 8 -22 -7 -17 -33 12 -24 25 -25 66 -3 80 5 3 9 14 9 25 0 10 7 19 15 19
23 0 18 26 -10 48 -13 10 -26 32 -29 47 -6 31 -34 67 -47 59 -5 -3 -6 -10 -3
-16 4 -7 2 -8 -4 -4 -8 5 -9 13 -3 25 10 18 -14 41 -44 41 -12 0 -14 -4 -5
-19 15 -28 12 -39 -5 -17 -7 10 -18 15 -24 12 -5 -4 -15 2 -20 13 -13 24 -41
35 -55 21 -15 -15 -26 -12 -20 5 4 8 16 15 27 15 16 0 18 3 9 12 -9 9 -18 9
-37 0 -32 -15 -38 -15 -30 -2 3 6 -1 7 -9 4 -9 -3 -16 -2 -16 4 0 5 -12 13
-26 16 -15 4 -24 9 -22 12 3 2 17 0 32 -5 36 -14 32 -1 -8 29 -18 13 -33 31
-32 40 1 10 -7 14 -21 13 -11 -1 -27 4 -33 12 -7 8 -9 15 -5 15 5 0 0 9 -10
20 -18 20 -43 17 -27 -3 4 -7 14 -25 21 -42 l12 -30 -24 25 c-15 16 -20 28
-14 32 6 4 -1 12 -16 19 -29 13 -31 36 -3 31 10 -2 16 4 15 15 0 11 -3 13 -6
5 -6 -15 -53 25 -53 46 0 14 -47 39 -56 30 -3 -4 -1 -23 5 -44 6 -21 8 -40 6
-43 -7 -7 -34 32 -28 41 2 5 -3 15 -11 23 -8 9 -13 22 -10 29 7 19 -15 31 -29
17 -9 -9 -8 -14 2 -20 7 -5 10 -14 7 -20 -8 -13 -36 10 -36 29 0 7 -7 9 -16 6
-9 -3 -18 -6 -20 -6 -3 0 -2 -5 2 -12 4 -7 3 -8 -4 -4 -7 4 -12 17 -12 29 -1
23 -26 64 -35 56 -2 -3 4 -29 14 -57 25 -68 31 -128 13 -124 -8 1 -11 -2 -7
-8 4 -6 1 -19 -6 -28 -12 -14 -10 -14 8 1 21 18 21 18 32 -16 6 -19 8 -42 5
-52 -6 -14 -4 -17 9 -12 22 8 22 -20 2 -47 -12 -16 -15 -16 -15 -4 0 8 -10 23
-22 34 -13 12 -18 13 -12 4 4 -8 9 -22 9 -30 0 -8 10 -20 23 -26 27 -13 59
-54 43 -54 -6 0 -11 5 -11 10 0 6 -4 10 -10 10 -6 0 -10 -27 -10 -61 0 -42 -4
-59 -12 -57 -14 5 -40 116 -42 183 -1 38 -5 52 -19 57 -14 6 -16 12 -7 28 9
16 8 18 -5 14 -10 -4 -15 0 -15 10 0 9 -5 16 -10 16 -12 0 -3 -48 13 -68 5 -7
7 -15 3 -19 -9 -9 -36 29 -31 44 2 6 -3 17 -11 23 -8 7 -14 21 -14 32 0 10 -5
16 -10 13 -6 -4 -5 5 2 19 6 14 15 26 19 26 6 0 -21 62 -39 90 -2 2 -7 -2 -11
-9 -6 -9 -11 -10 -15 -2 -26 41 -30 -32 -5 -96 12 -33 3 -42 -17 -17 -15 18
-15 18 -9 -9 6 -30 -18 -77 -30 -58 -3 6 -11 9 -16 5 -19 -11 4 -25 31 -19 23
5 32 2 42 -14 7 -12 18 -21 24 -21 6 0 18 -10 26 -22 13 -19 18 -21 31 -10 10
9 17 10 22 2 10 -17 -5 -31 -27 -24 -19 6 -20 3 -14 -32 4 -22 10 -49 13 -61
3 -13 1 -23 -5 -23 -9 0 -32 81 -32 114 0 7 -11 23 -25 36 l-25 23 -1 -24 0
-24 -11 23 c-18 35 -23 26 -20 -33 l4 -54 -39 19 c-35 17 -70 32 -83 34 -3 1
-16 11 -29 23 -13 12 -38 25 -55 29 -17 3 -35 10 -41 14 -5 4 -29 11 -53 15
-46 7 -66 31 -39 46 9 6 13 17 10 30 -5 18 -7 19 -14 6 -12 -21 -67 -1 -75 28
-4 11 -11 26 -18 34 -9 11 -12 9 -16 -10 -4 -15 -1 -29 9 -37 14 -10 13 -11
-4 -5 -18 6 -19 5 -6 -13 8 -10 2 -7 -12 8 -16 16 -33 25 -42 22 -10 -4 -15 0
-15 16 0 11 -4 18 -10 15 -6 -4 -7 2 -1 17 6 17 4 26 -8 34 -14 11 -13 14 8
31 l23 19 -26 12 c-24 11 -26 10 -31 -22 -4 -18 -4 -50 -1 -71 l6 -37 -47 42
c-33 29 -50 52 -53 73 -4 24 -11 33 -29 35 -15 2 -21 0 -17 -7 4 -6 3 -11 -3
-11 -5 0 -13 5 -16 10 -4 6 -23 17 -42 25 -20 9 -34 18 -30 21 3 3 15 1 26 -6
29 -15 27 4 -4 28 -31 25 -32 32 -2 25 48 -10 138 -52 115 -52 -10 -1 -18 -5
-18 -10 0 -5 15 -4 35 2 29 9 38 7 54 -7 11 -10 21 -13 25 -7 9 14 -33 41 -64
41 -14 0 -49 11 -78 25 -30 14 -65 25 -79 25 -22 0 -24 -3 -19 -25 7 -29 1
-32 -20 -10 -9 8 -23 15 -32 14 -13 0 -11 -3 5 -9 12 -5 26 -18 32 -29 9 -16
8 -19 -7 -16 -25 4 -35 -5 -21 -21 14 -17 5 -18 -23 -3 -16 8 -19 17 -14 40 4
20 1 31 -12 39 -16 9 -16 11 3 25 12 10 29 14 43 10 17 -4 23 -2 20 7 -3 7
-18 13 -33 13 -16 0 -30 6 -32 13 -3 6 -12 12 -21 13 -13 0 -12 3 5 11 21 10
21 12 7 39 -9 19 -11 29 -3 29 6 0 9 6 6 13 -2 6 -9 11 -14 10 -5 -1 -14 6
-20 16 -10 16 -8 18 15 15 15 -2 19 -1 9 2 -14 4 -17 12 -13 29 4 14 0 29 -9
39 -21 20 -19 36 5 36 11 0 20 5 20 11 0 6 -6 9 -14 6 -8 -3 -20 1 -26 9 -7 8
-10 15 -6 15 5 1 11 3 34 8 4 1 -4 7 -17 12 -18 7 -22 15 -18 34 2 14 0 28 -4
31 -14 8 -10 47 6 68 8 10 12 22 10 27 -3 4 5 15 17 23 12 9 19 19 15 23 -4 3
5 19 20 35 37 39 26 34 -24 -10z m0 -491 c3 -13 1 -18 -8 -14 -8 2 -13 13 -12
23 1 23 13 17 20 -9z m-13 -181 c0 -5 -2 -10 -4 -10 -3 0 -8 5 -11 10 -3 6 -1
10 4 10 6 0 11 -4 11 -10z m198 -44 c3 -12 -1 -17 -10 -14 -7 3 -15 13 -16 22
-3 12 1 17 10 14 7 -3 15 -13 16 -22z m807 -86 c0 -7 -6 -14 -13 -16 -7 -1 -8
0 -2 3 7 3 7 10 -2 21 -11 13 -11 14 2 10 8 -2 15 -11 15 -18z m318 -4 c4 -10
1 -13 -8 -9 -8 3 -12 9 -9 14 7 12 11 11 17 -5z m-139 -11 c-4 -8 -8 -15 -10
-15 -2 0 -4 7 -4 15 0 8 4 15 10 15 5 0 7 -7 4 -15z m-154 -19 c0 -3 -4 -8
-10 -11 -5 -3 -10 -1 -10 4 0 6 5 11 10 11 6 0 10 -2 10 -4z m345 -26 c3 -5 2
-10 -4 -10 -5 0 -13 5 -16 10 -3 6 -2 10 4 10 5 0 13 -4 16 -10z m-366 -80
c21 -40 21 -41 1 -30 -11 6 -20 15 -20 21 0 6 -4 8 -9 5 -11 -7 -23 22 -15 35
10 17 22 9 43 -31z m311 24 c0 -2 -9 -4 -21 -4 -11 0 -18 4 -14 10 5 8 35 3
35 -6z m-1103 -56 c-3 -8 -6 -5 -6 6 -1 11 2 17 5 13 3 -3 4 -12 1 -19z m1025
-3 c3 -13 1 -22 -3 -19 -9 5 -13 44 -5 44 2 0 6 -11 8 -25z m255 -11 c-3 -3
-12 -4 -19 -1 -8 3 -5 6 6 6 11 1 17 -2 13 -5z m-377 -111 c0 -8 -4 -11 -10
-8 -13 8 -13 -1 0 -25 7 -13 6 -19 -5 -24 -8 -3 -15 -12 -15 -21 0 -8 -4 -15
-10 -15 -13 0 -13 37 0 45 7 4 6 13 -1 27 -8 15 -8 19 0 14 13 -9 14 13 2 34
-6 8 -7 18 -4 24 7 11 43 -30 43 -51z m-1273 -10 c-3 -10 -5 -2 -5 17 0 19 2
27 5 18 2 -10 2 -26 0 -35z m1838 -23 c-3 -5 -12 -10 -18 -10 -7 0 -6 4 3 10
19 12 23 12 15 0z m-1838 -37 c-3 -10 -5 -4 -5 12 0 17 2 24 5 18 2 -7 2 -21
0 -30z m1274 -7 c5 3 9 0 9 -6 0 -15 -23 -7 -26 8 -1 7 0 8 3 2 2 -5 9 -8 14
-4z m9 -226 c0 -5 -2 -10 -4 -10 -3 0 -8 5 -11 10 -3 6 -1 10 4 10 6 0 11 -4
11 -10z m854 -415 c-4 -8 -10 -12 -15 -9 -11 6 -2 24 11 24 5 0 7 -7 4 -15z
m-168 -57 c0 -13 -7 -30 -15 -38 -13 -13 -14 -13 -8 3 4 10 7 27 7 38 0 10 4
19 8 19 4 0 8 -10 8 -22z m74 -27 c0 -5 3 -16 6 -25 4 -11 1 -16 -11 -16 -10
0 -13 5 -9 12 4 6 -1 17 -11 25 -18 12 -18 13 3 13 12 0 22 -4 22 -9z m157 -7
c-3 -3 -12 -4 -19 -1 -8 3 -5 6 6 6 11 1 17 -2 13 -5z m-87 -84 l-8 -35 -1 45
c-1 27 3 40 8 35 6 -6 6 -25 1 -45z m-113 12 c-9 -9 -18 -32 -22 -50 -5 -29
-3 -32 20 -32 14 0 25 -5 25 -11 0 -5 -4 -7 -10 -4 -5 3 -19 1 -31 -5 l-21
-12 21 -14 c16 -12 20 -24 17 -59 -1 -24 -6 -48 -11 -52 -4 -5 -5 -2 -1 5 4 6
5 12 2 12 -3 0 -10 -10 -17 -21 -8 -16 -8 -20 1 -14 7 4 4 -7 -5 -25 -9 -18
-12 -29 -6 -26 12 8 -7 -56 -20 -64 -4 -3 -9 -16 -10 -29 -2 -14 -10 -26 -18
-29 -8 -3 -11 0 -7 7 4 6 1 11 -8 11 -10 0 -13 -7 -10 -26 3 -16 1 -23 -6 -19
-5 3 -10 1 -10 -5 0 -6 -6 -8 -12 -4 -10 6 -10 4 0 -7 17 -18 15 -39 -4 -39
-10 0 -14 6 -11 14 8 19 -19 25 -58 12 -62 -19 -61 -19 -42 -23 9 -3 17 -9 17
-15 0 -6 -3 -8 -7 -5 -3 4 -11 3 -17 -2 -18 -13 -48 -22 -41 -11 8 14 -24 60
-43 60 -21 0 -10 10 16 15 12 2 24 -1 28 -6 8 -13 33 21 27 37 -2 7 1 15 7 19
6 3 9 1 8 -6 -2 -6 3 -14 11 -17 10 -3 12 0 7 13 -5 15 -4 16 9 5 9 -7 18 -10
22 -6 3 3 1 6 -5 6 -19 0 -14 20 6 20 15 1 15 2 -2 15 -17 13 -17 15 -3 21 10
3 17 10 17 16 0 5 -6 6 -12 2 -8 -5 -7 0 2 11 14 17 13 18 -2 12 -11 -4 -17
-2 -15 5 3 18 21 37 29 31 5 -2 25 -5 46 -6 33 -2 38 0 34 16 -4 14 -7 15 -20
5 -13 -11 -15 -10 -10 9 4 13 2 26 -3 29 -19 11 -8 21 26 22 19 1 35 -3 35 -7
0 -5 -8 -7 -19 -4 -10 3 -22 0 -25 -6 -4 -6 -6 -11 -4 -11 2 -1 20 -3 41 -6
33 -5 37 -3 37 16 0 12 -4 18 -10 15 -14 -9 -13 8 2 23 9 9 9 12 -1 12 -7 0
-9 5 -6 10 4 6 12 7 18 3 7 -4 6 0 -2 10 -7 9 -11 26 -8 37 3 13 0 20 -9 20
-19 0 -18 2 12 61 17 35 30 49 40 45 8 -3 14 -1 14 4 0 6 5 10 12 10 7 0 5 -7
-5 -18z m143 -69 c0 -10 11 -41 24 -69 15 -32 21 -56 15 -65 -6 -10 -9 -9 -14
6 -4 11 -11 29 -15 40 -5 11 -11 31 -13 45 -2 14 -8 33 -12 43 -4 10 -3 17 4
17 6 0 11 -8 11 -17z m-110 -57 c0 -3 -4 -8 -10 -11 -5 -3 -10 -1 -10 4 0 6 5
11 10 11 6 0 10 -2 10 -4z m50 -21 c0 -8 5 -15 11 -15 9 0 39 -58 39 -76 0 -4
-9 1 -20 11 -11 10 -17 22 -14 26 3 5 -2 6 -10 3 -8 -3 -12 -13 -9 -22 4 -14
3 -14 -5 -3 -6 8 -8 21 -4 29 4 11 1 14 -11 9 -20 -8 -22 6 -5 33 15 24 28 26
28 5z m-210 -35 c0 -5 -4 -10 -10 -10 -5 0 -10 5 -10 10 0 6 5 10 10 10 6 0
10 -4 10 -10z m40 -5 c0 -8 -4 -15 -10 -15 -5 0 -7 7 -4 15 4 8 8 15 10 15 2
0 4 -7 4 -15z m280 -45 c0 -5 -2 -10 -4 -10 -3 0 -8 5 -11 10 -3 6 -1 10 4 10
6 0 11 -4 11 -10z m113 -30 c3 -11 1 -18 -4 -14 -5 3 -9 12 -9 20 0 20 7 17
13 -6z m-173 6 c0 -3 -4 -8 -10 -11 -5 -3 -10 -1 -10 4 0 6 5 11 10 11 6 0 10
-2 10 -4z m248 -32 c-3 -14 -5 -12 -10 9 -3 19 -2 25 4 19 6 -6 8 -18 6 -28z
m33 -7 c-10 -9 -11 -8 -5 6 3 10 9 15 12 12 3 -3 0 -11 -7 -18z m-51 -87 c0
-6 -4 -10 -10 -10 -5 0 -7 7 -4 15 4 8 -1 17 -10 21 -9 3 -16 16 -16 28 0 18
3 16 20 -12 11 -18 20 -37 20 -42z m40 31 c0 -4 -6 -8 -14 -8 -8 0 -12 6 -9
14 5 13 23 9 23 -6z m-1055 -41 c3 -5 1 -10 -4 -10 -6 0 -11 5 -11 10 0 6 2
10 4 10 3 0 8 -4 11 -10z m1225 0 c0 -5 -2 -10 -4 -10 -3 0 -8 5 -11 10 -3 6
-1 10 4 10 6 0 11 -4 11 -10z m-224 -47 c-7 -7 -26 7 -26 19 0 6 6 6 15 -2 9
-7 13 -15 11 -17z m-136 -18 c0 -5 -5 -3 -10 5 -5 8 -10 20 -10 25 0 6 5 3 10
-5 5 -8 10 -19 10 -25z m151 -17 c11 -21 11 -22 -4 -9 -10 7 -17 17 -17 22 0
15 9 10 21 -13z m-731 -12 c0 -2 -7 -6 -15 -10 -8 -3 -15 -1 -15 4 0 6 7 10
15 10 8 0 15 -2 15 -4z m28 -28 c7 -7 12 -18 12 -26 0 -12 -3 -12 -15 -2 -8 6
-19 9 -25 5 -12 -7 -12 -3 -4 19 7 19 16 20 32 4z m682 -116 c0 -8 -11 2 -25
22 -14 20 -25 42 -25 48 0 7 11 -3 25 -22 14 -19 25 -40 25 -48z m101 22 c14
-38 3 -41 -16 -5 -9 18 -11 31 -5 31 6 0 15 -12 21 -26z m-1231 -20 c0 -8 -4
-12 -10 -9 -5 3 -10 10 -10 16 0 5 5 9 10 9 6 0 10 -7 10 -16z m42 -36 c-9 -9
-12 -7 -12 12 0 19 3 21 12 12 9 -9 9 -15 0 -24z m12 -33 c3 -8 1 -15 -4 -15
-6 0 -10 7 -10 15 0 8 2 15 4 15 2 0 6 -7 10 -15z m1116 -5 c0 -5 -2 -10 -4
-10 -3 0 -8 5 -11 10 -3 6 -1 10 4 10 6 0 11 -4 11 -10z m174 -16 c3 -8 2 -12
-4 -9 -6 3 -10 10 -10 16 0 14 7 11 14 -7z m-160 -20 c3 -8 2 -12 -4 -9 -6 3
-10 10 -10 16 0 14 7 11 14 -7z m266 6 c0 -5 4 -9 9 -7 5 1 9 -2 10 -8 2 -18
-34 -11 -37 8 -2 9 1 17 7 17 6 0 11 -4 11 -10z m-93 -42 c-3 -7 -5 -2 -5 12
0 14 2 19 5 13 2 -7 2 -19 0 -25z m-1397 -24 c0 -8 -4 -12 -10 -9 -5 3 -10 10
-10 16 0 5 5 9 10 9 6 0 10 -7 10 -16z m1350 -19 c0 -5 -5 -3 -10 5 -5 8 -10
20 -10 25 0 6 5 3 10 -5 5 -8 10 -19 10 -25z m-2175 -14 c13 -43 33 -165 28
-177 -3 -9 3 -14 18 -14 22 -1 22 -2 6 -11 -15 -9 -22 -7 -35 12 -23 32 -42
104 -42 162 0 47 14 63 25 28z m2082 -3 c-3 -8 -6 -5 -6 6 -1 11 2 17 5 13 3
-3 4 -12 1 -19z m-1237 -9 c0 -6 -4 -7 -10 -4 -5 3 -10 11 -10 16 0 6 5 7 10
4 6 -3 10 -11 10 -16z m-757 -46 c15 -54 31 -153 20 -125 -2 6 -10 9 -16 5 -7
-3 -9 -2 -4 2 4 5 -1 17 -10 27 -19 21 -32 148 -16 148 6 0 17 -26 26 -57z
m2163 24 c2 -7 6 -23 9 -37 4 -17 1 -14 -9 9 -17 35 -21 59 -9 47 4 -3 8 -12
9 -19z m-2339 -9 c-3 -8 -6 -5 -6 6 -1 11 2 17 5 13 3 -3 4 -12 1 -19z m2203
-20 c-1 -8 -6 -6 -15 6 -20 26 -19 42 0 22 8 -8 15 -21 15 -28z m-2156 -30
c26 -95 30 -121 15 -116 -13 4 -22 36 -42 136 -11 53 11 37 27 -20z m2205 -66
c22 -56 28 -107 11 -97 -6 4 -8 11 -4 16 9 16 -17 70 -30 62 -6 -3 -8 -3 -4 2
4 4 2 17 -3 28 -6 11 -12 31 -14 44 -4 38 19 9 44 -55z m81 23 c0 -5 -5 -3
-10 5 -5 8 -10 20 -10 25 0 6 5 3 10 -5 5 -8 10 -19 10 -25z m43 -32 c3 -17 8
-37 12 -42 3 -6 1 -11 -4 -11 -6 0 -11 6 -11 14 0 8 -9 18 -20 21 -11 3 -20
14 -20 23 0 13 3 13 16 -4 14 -18 15 -17 10 21 -6 47 9 27 17 -22z m123 -8 c1
-8 -2 -13 -7 -9 -5 3 -9 12 -9 21 0 19 13 9 16 -12z m-1797 -76 c-16 -10 -23
-4 -14 10 3 6 11 8 17 5 6 -4 5 -9 -3 -15z m1671 -18 c0 -11 5 -23 10 -26 14
-9 12 -27 -2 -23 -14 5 -30 68 -17 68 5 0 9 -9 9 -19z m70 -27 c0 -8 -5 -12
-10 -9 -6 4 -8 11 -5 16 9 14 15 11 15 -7z m-134 -78 c-2 -6 -7 -2 -11 9 -3
11 -10 27 -14 35 -4 8 -6 22 -3 30 3 9 10 -1 19 -25 7 -21 12 -44 9 -49z m244
54 c0 -5 -2 -10 -4 -10 -3 0 -8 5 -11 10 -3 6 -1 10 4 10 6 0 11 -4 11 -10z
m-50 -46 c0 -8 -4 -12 -10 -9 -5 3 -10 10 -10 16 0 5 5 9 10 9 6 0 10 -7 10
-16z m706 -50 c17 -16 22 -24 12 -21 -10 4 -18 2 -18 -3 0 -5 8 -14 18 -19 9
-6 12 -11 5 -11 -7 0 -24 11 -38 25 -25 26 -33 41 -15 30 6 -3 10 -2 10 4 0 5
-6 12 -12 14 -8 3 -8 6 -2 6 6 1 24 -11 40 -25z m14 -74 c0 -5 -2 -10 -4 -10
-3 0 -8 5 -11 10 -3 6 -1 10 4 10 6 0 11 -4 11 -10z m-112 -38 c5 -16 -36 -3
-42 13 -4 11 0 12 16 6 12 -4 24 -13 26 -19z m66 12 c3 -8 2 -12 -4 -9 -6 3
-10 10 -10 16 0 14 7 11 14 -7z m-301 -39 c-41 -18 -42 -25 -3 -18 31 4 84
-21 110 -52 19 -23 7 -18 -26 10 -16 14 -39 26 -51 26 -13 1 -29 2 -35 3 -7 1
-26 -6 -43 -14 -37 -20 -113 -31 -140 -20 -24 10 -10 13 50 10 22 -1 37 1 34
4 -3 3 -28 6 -55 7 -27 1 -53 4 -58 7 -18 10 41 31 94 33 30 1 69 5 85 9 52
13 73 11 38 -5z m262 -25 c3 -5 1 -10 -4 -10 -6 0 -11 5 -11 10 0 6 2 10 4 10
3 0 8 -4 11 -10z m-279 -50 c0 -10 -2 -17 -5 -15 -2 3 -9 1 -15 -4 -6 -5 -26
-11 -44 -14 -19 -3 -37 -9 -40 -13 -8 -7 81 1 114 11 16 5 30 -2 55 -25 l34
-32 -32 21 c-17 12 -37 21 -45 20 -8 0 -9 -2 -2 -5 7 -3 10 -14 7 -24 -4 -14
-12 -18 -27 -16 -11 3 -36 5 -53 5 -18 1 -32 4 -30 9 1 4 -1 7 -5 7 -4 0 -13
9 -21 19 -8 11 -19 16 -26 12 -7 -5 -27 -10 -44 -13 -50 -7 -21 11 58 37 39
12 77 26 85 31 24 14 36 10 36 -11z m71 14 c-3 -3 -12 -4 -19 -1 -8 3 -5 6 6
6 11 1 17 -2 13 -5z m213 -29 c0 -5 -5 -3 -10 5 -5 8 -10 20 -10 25 0 6 5 3
10 -5 5 -8 10 -19 10 -25z m-36 -17 c17 -41 28 -98 18 -98 -15 0 -32 24 -32
44 0 11 -8 28 -17 38 -16 18 -16 18 3 12 16 -7 17 -5 7 8 -7 8 -10 18 -6 21
10 10 11 9 27 -25z m182 -88 c-1 -16 1 -30 5 -30 4 0 7 -9 6 -20 -2 -31 -16
-8 -23 38 -3 25 -2 42 4 42 6 0 9 -13 8 -30z m-451 10 c3 -5 19 -10 35 -10 19
0 33 -7 40 -21 11 -19 10 -20 -9 -9 -12 6 -21 8 -21 4 0 -3 -7 0 -17 7 -15 13
-15 12 -4 -8 7 -15 8 -23 1 -23 -5 0 -10 7 -10 15 0 7 -8 19 -17 24 -10 6 -13
11 -8 11 6 0 3 5 -5 10 -9 6 -10 10 -3 10 6 0 15 -4 18 -10z m545 -29 c0 -17
-18 -21 -24 -6 -3 9 0 15 9 15 8 0 15 -4 15 -9z m-250 -17 c0 -8 -4 -12 -10
-9 -5 3 -10 10 -10 16 0 5 5 9 10 9 6 0 10 -7 10 -16z m-353 -20 c-3 -3 -12
-4 -19 -1 -8 3 -5 6 6 6 11 1 17 -2 13 -5z m53 -12 c0 -5 -14 -9 -32 -10 -23
-1 -28 2 -18 8 19 12 50 13 50 2z m560 -2 c0 -5 -2 -10 -4 -10 -3 0 -8 5 -11
10 -3 6 -1 10 4 10 6 0 11 -4 11 -10z m-83 -62 c0 -9 -4 -15 -9 -12 -5 3 -6 9
-3 14 3 5 1 11 -5 15 -5 3 -10 14 -10 23 0 14 2 13 14 -3 7 -11 13 -28 13 -37z
m-394 25 c-7 -2 -19 -2 -25 0 -7 3 -2 5 12 5 14 0 19 -2 13 -5z m42 -3 c3 -6
-1 -7 -9 -4 -18 7 -21 14 -7 14 6 0 13 -4 16 -10z m66 -7 c13 -16 12 -17 -3
-4 -10 7 -18 15 -18 17 0 8 8 3 21 -13z m289 -64 c0 -6 -4 -7 -10 -4 -5 3 -10
11 -10 16 0 6 5 7 10 4 6 -3 10 -11 10 -16z m80 -29 c0 -5 -2 -10 -4 -10 -3 0
-8 5 -11 10 -3 6 -1 10 4 10 6 0 11 -4 11 -10z m-339 -47 c13 -16 12 -17 -3
-4 -10 7 -18 15 -18 17 0 8 8 3 21 -13z m354 -33 c3 -5 1 -10 -4 -10 -6 0 -11
5 -11 10 0 6 2 10 4 10 3 0 8 -4 11 -10z m-170 -10 c3 -5 1 -10 -4 -10 -6 0
-11 5 -11 10 0 6 2 10 4 10 3 0 8 -4 11 -10z m53 -15 c-3 -3 -9 2 -12 12 -6
14 -5 15 5 6 7 -7 10 -15 7 -18z m142 -31 c0 -8 -4 -12 -10 -9 -5 3 -10 10
-10 16 0 5 5 9 10 9 6 0 10 -7 10 -16z m90 -24 c0 -11 -6 -20 -13 -20 -7 0
-13 9 -14 20 -1 11 4 20 13 20 8 0 14 -9 14 -20z m208 4 c11 7 24 -18 15 -28
-8 -8 -43 24 -43 38 0 6 4 5 9 -3 5 -7 13 -11 19 -7z m-140 -71 c-3 -20 -18
-34 -30 -27 -4 3 0 14 10 24 20 25 24 25 20 3z m-683 -27 c29 -8 40 -15 27
-15 -12 -1 -39 6 -59 14 -44 19 -42 19 -36 -3 5 -19 81 -62 109 -62 11 0 14
-5 10 -16 -3 -9 3 -36 13 -60 11 -24 18 -44 15 -44 -10 0 -19 6 -17 11 1 4
-18 12 -42 19 -25 7 -45 16 -45 20 0 5 -12 6 -27 4 -16 -2 -41 0 -58 5 -28 9
-29 9 -5 10 20 1 22 3 10 11 -12 8 -13 12 -1 19 10 6 11 13 2 29 -18 34 -14
55 9 49 11 -3 18 -1 14 4 -3 5 -12 9 -20 9 -9 0 -12 5 -8 11 7 12 31 9 109
-15z m355 -103 c0 -14 -47 61 -54 87 -4 14 6 2 23 -27 17 -29 31 -56 31 -60z
m62 42 c9 -18 8 -17 -11 2 -11 12 -21 28 -21 35 0 14 10 2 32 -37z m-527 -5
c3 -5 1 -10 -4 -10 -6 0 -11 5 -11 10 0 6 2 10 4 10 3 0 8 -4 11 -10z m190
-20 c3 -5 -1 -10 -10 -10 -9 0 -13 5 -10 10 3 6 8 10 10 10 2 0 7 -4 10 -10z
m678 -19 c5 -1 6 -5 3 -10 -3 -5 -15 -7 -26 -4 -12 3 -20 0 -20 -8 0 -7 -2
-10 -5 -7 -11 11 7 36 23 33 9 -2 21 -4 25 -4z m-1088 -70 c94 -36 140 -46
202 -44 44 2 75 -4 105 -17 24 -11 35 -20 26 -20 -10 0 -18 -5 -18 -11 0 -6 7
-8 16 -5 12 4 14 1 9 -14 -4 -12 1 -26 14 -39 12 -12 21 -25 21 -31 0 -5 7
-13 16 -18 11 -6 13 -11 5 -16 -15 -10 -14 -29 2 -20 6 4 9 4 5 -1 -4 -4 -3
-16 2 -26 7 -11 7 -20 0 -24 -5 -3 -16 8 -25 25 -9 17 -20 28 -26 24 -6 -3 -9
0 -7 8 2 7 -1 14 -7 15 -5 0 -9 -3 -7 -8 4 -17 -10 -9 -45 26 -19 19 -40 35
-47 35 -7 0 -21 8 -32 18 -50 44 -69 57 -55 39 8 -9 11 -20 7 -24 -8 -9 -47
28 -40 38 3 5 -2 6 -11 3 -12 -5 -13 -9 -4 -20 15 -18 -11 -20 -29 -2 -9 9
-12 9 -12 0 0 -6 -6 -9 -14 -6 -8 3 -23 1 -34 -5 -12 -7 -22 -7 -29 0 -6 6
-10 5 -11 -3 0 -7 -3 -22 -6 -33 -2 -11 -5 -24 -5 -28 -1 -5 -14 3 -31 16 -16
14 -39 28 -50 32 -11 3 -20 14 -20 24 0 10 -6 24 -14 31 -8 6 -12 19 -9 27 5
13 2 15 -15 11 -12 -4 -22 -2 -22 3 0 5 1 9 3 9 1 0 29 11 62 25 73 30 68 29
130 6z m337 -25 l27 -33 -24 5 c-14 2 -22 9 -19 14 3 5 -2 18 -12 29 -9 10
-13 19 -8 18 5 0 21 -15 36 -33z m513 14 c3 -5 2 -10 -4 -10 -5 0 -13 5 -16
10 -3 6 -2 10 4 10 5 0 13 -4 16 -10z m-447 -48 c-1 -10 2 -28 6 -42 8 -24 8
-24 -8 -5 -8 11 -16 28 -16 38 0 10 -5 28 -11 40 -12 22 -12 22 9 4 11 -11 20
-26 20 -35z m652 -53 c0 -11 -4 -17 -10 -14 -5 3 -10 13 -10 21 0 8 5 14 10
14 6 0 10 -9 10 -21z m-1042 -47 c2 -7 -2 -10 -12 -6 -9 3 -16 11 -16 16 0 13
23 5 28 -10z m-70 -25 c34 -31 26 -39 -15 -17 -21 11 -46 20 -55 20 -21 0 -24
16 -5 23 19 8 49 -3 75 -26z m-178 -36 c0 -10 -7 -24 -15 -31 -11 -9 -12 -16
-5 -25 12 -15 -11 -28 -35 -19 -10 4 -13 0 -10 -16 6 -32 -5 -51 -29 -48 -15
2 -20 -2 -18 -14 2 -11 -3 -18 -12 -18 -8 0 -17 -6 -20 -12 -3 -9 -9 -7 -21 7
-14 18 -14 21 0 31 12 9 13 13 3 17 -7 2 -10 7 -7 11 3 4 17 2 30 -3 17 -6 30
-5 42 4 21 15 22 26 3 19 -8 -3 -17 -1 -20 5 -4 6 -14 7 -23 4 -11 -4 -14 -2
-11 8 3 8 11 13 17 11 6 -1 10 4 9 10 -2 7 4 14 12 14 8 1 21 2 29 3 11 1 11
4 1 16 -7 8 -17 12 -24 8 -6 -4 -5 1 3 10 16 21 35 22 28 3 -6 -16 16 -28 37
-20 16 6 30 34 17 34 -5 0 -11 -7 -15 -15 -8 -22 -25 -18 -19 4 9 34 53 35 53
2z m510 19 c0 -5 -2 -10 -4 -10 -3 0 -8 5 -11 10 -3 6 -1 10 4 10 6 0 11 -4
11 -10z m-352 -27 c31 -21 42 -34 42 -53 l0 -25 -18 22 c-20 26 -88 57 -103
47 -7 -4 -7 1 0 15 15 28 28 27 79 -6z m-37 -62 c-7 -5 -5 -16 4 -34 10 -20
11 -27 2 -27 -7 0 -6 -4 3 -10 13 -8 13 -13 2 -31 -8 -11 -9 -18 -3 -14 6 3
11 -1 11 -11 0 -15 -3 -15 -23 4 -13 12 -29 22 -35 22 -7 0 -12 5 -12 10 0 6
3 10 8 10 4 0 8 21 10 46 3 57 9 69 28 53 9 -8 11 -15 5 -18z m-1186 -138 c-9
-102 -13 -113 -36 -113 -16 0 -19 4 -14 18 3 9 10 37 15 62 10 52 27 100 36
100 3 0 3 -30 -1 -67z m913 -15 c6 -6 12 -16 12 -24 0 -18 21 -29 29 -15 5 7
15 9 26 4 39 -14 -34 -23 -75 -8 -21 7 -40 11 -43 9 -6 -7 -47 18 -47 28 0 5
9 8 20 8 11 0 20 5 20 11 0 11 37 3 58 -13z m52 -12 c0 -2 -7 -6 -15 -10 -8
-3 -15 -1 -15 4 0 6 7 10 15 10 8 0 15 -2 15 -4z"/>
<path d="M2767 2754 c-4 -4 -7 -14 -7 -23 0 -11 3 -12 11 -4 6 6 10 16 7 23
-2 6 -7 8 -11 4z"/>
<path d="M2650 2401 c0 -13 39 -21 47 -9 3 6 1 8 -5 4 -6 -3 -13 -2 -17 4 -8
12 -25 13 -25 1z"/>
<path d="M3878 1393 c7 -3 16 -2 19 1 4 3 -2 6 -13 5 -11 0 -14 -3 -6 -6z"/>
<path d="M3922 1279 c2 -7 12 -13 21 -15 23 -3 21 3 -4 17 -17 8 -20 8 -17 -2z"/>
<path d="M4180 1301 c0 -6 4 -13 10 -16 6 -3 7 1 4 9 -7 18 -14 21 -14 7z"/>
<path d="M3917 719 c7 -7 15 -10 18 -7 3 3 -2 9 -12 12 -14 6 -15 5 -6 -5z"/>
<path d="M3946 697 c-7 -27 15 -50 69 -73 34 -14 38 -14 26 0 -7 8 -10 20 -6
26 3 5 -1 10 -9 10 -8 0 -18 5 -22 12 -4 6 -3 8 4 4 6 -3 13 -2 17 4 6 10 -14
15 -44 11 -7 -2 -10 2 -7 7 3 6 0 12 -8 15 -9 4 -16 -3 -20 -16z"/>
<path d="M3976 424 c-9 -23 -8 -24 12 -23 12 0 13 2 3 6 -10 4 -10 7 -1 13 8
5 8 10 2 14 -5 3 -13 -1 -16 -10z"/>
<path d="M2490 4771 c0 -5 -19 -11 -42 -15 -23 -4 -51 -15 -61 -24 -11 -9 -35
-17 -56 -17 -32 0 -36 -3 -34 -23 3 -21 1 -22 -18 -9 -11 8 -28 13 -39 10 -10
-3 -21 0 -25 6 -4 8 -12 4 -24 -10 -11 -13 -30 -22 -50 -23 -24 -1 -31 -5 -28
-17 3 -12 -3 -16 -24 -16 -16 0 -29 4 -29 9 0 4 -5 8 -11 8 -6 0 -8 -9 -4 -20
8 -26 -9 -26 -34 -1 -12 12 -21 15 -23 9 -3 -7 -15 -4 -33 8 -21 14 -27 15
-20 4 8 -13 7 -13 -8 -1 -11 8 -44 14 -85 15 -37 1 -73 5 -80 9 -7 5 -14 2
-18 -7 -3 -9 -10 -13 -15 -10 -5 3 -6 -3 -2 -12 5 -13 3 -15 -7 -9 -8 5 -11 3
-8 -6 3 -8 12 -13 22 -11 9 2 16 -1 16 -6 0 -4 17 -18 38 -29 51 -29 109 -85
173 -168 65 -85 71 -89 87 -68 10 14 16 15 31 6 16 -10 17 -8 13 15 l-5 26 37
-22 c42 -25 50 -27 40 -10 -4 7 -3 8 5 4 6 -4 9 -11 6 -16 -3 -5 -1 -11 5 -15
5 -3 10 3 10 14 0 12 -4 22 -10 22 -5 1 -14 2 -19 3 -5 0 -13 5 -18 10 -5 5 8
6 30 3 27 -4 35 -3 30 6 -4 7 -8 18 -9 25 -2 10 1 11 12 1 8 -6 14 -16 14 -22
0 -5 14 -24 30 -41 17 -17 46 -52 66 -78 46 -63 111 -108 147 -101 22 4 28 1
37 -21 5 -14 12 -26 15 -26 4 0 3 5 0 10 -3 6 -2 10 2 10 5 0 15 16 22 36 13
36 39 44 49 15 3 -9 0 -11 -9 -6 -7 5 -3 -5 9 -22 12 -17 19 -33 17 -37 -3 -3
1 -2 7 4 18 15 28 12 28 -10 0 -10 8 -24 18 -29 16 -10 15 -10 -3 -11 -18 0
-18 -1 3 -16 12 -8 22 -22 22 -30 0 -8 4 -12 10 -9 5 3 7 0 4 -8 -3 -8 2 -20
10 -27 9 -7 13 -16 10 -22 -3 -5 -1 -14 4 -21 5 -7 15 -29 21 -49 7 -21 17
-38 22 -38 14 0 2 39 -22 73 -11 15 -15 27 -9 27 14 0 12 40 -4 68 -8 15 -10
39 -7 65 4 23 4 62 0 86 -3 25 -2 64 3 88 19 86 -8 304 -41 334 -12 11 -29 32
-38 47 -10 15 -23 31 -30 35 -7 4 -13 14 -13 22 0 8 -6 12 -13 9 -8 -3 -20 2
-27 11 -7 8 -19 15 -27 15 -7 0 -16 7 -19 15 -7 16 -24 21 -24 6z m-380 -156
c20 -24 6 -28 -15 -5 -10 11 -13 20 -8 20 6 0 16 -7 23 -15z m45 -193 c-3 -3
-11 0 -18 7 -9 10 -8 11 6 5 10 -3 15 -9 12 -12z"/>
<path d="M2380 4760 c-18 -12 -2 -12 25 0 13 6 15 9 5 9 -8 0 -22 -4 -30 -9z"/>
<path d="M1305 4740 c-4 -6 -1 -9 7 -8 7 2 13 -3 12 -9 -1 -7 -2 -22 -2 -33
-1 -11 -9 -20 -17 -20 -11 0 -15 -11 -15 -36 0 -37 15 -74 30 -74 5 0 25 30
44 66 27 51 33 71 25 85 -17 33 -70 51 -84 29z"/>
<path d="M1405 4622 c-6 -4 -16 -20 -23 -37 -11 -27 -11 -28 2 -10 9 11 20 26
27 33 13 15 8 24 -6 14z"/>
<path d="M1546 4533 c-6 -14 -5 -15 5 -6 7 7 10 15 7 18 -3 3 -9 -2 -12 -12z"/>
<path d="M1282 4520 c16 -26 55 -37 71 -20 9 10 7 11 -11 5 -18 -5 -27 -2 -38
14 -19 27 -38 28 -22 1z"/>
<path d="M1365 4430 c-3 -5 -2 -10 4 -10 5 0 13 5 16 10 3 6 2 10 -4 10 -5 0
-13 -4 -16 -10z"/>
<path d="M1226 4375 c-3 -8 -1 -15 4 -15 6 0 10 7 10 15 0 8 -2 15 -4 15 -2 0
-6 -7 -10 -15z"/>
<path d="M1073 4344 c9 -11 17 -26 17 -32 0 -7 4 -12 9 -12 5 0 16 -3 25 -6
11 -4 16 0 16 14 0 12 -4 24 -10 27 -5 3 -10 1 -10 -5 0 -6 -15 -1 -32 11 -29
20 -31 21 -15 3z"/>
<path d="M1887 4349 c7 -7 15 -10 18 -7 3 3 -2 9 -12 12 -14 6 -15 5 -6 -5z"/>
<path d="M1315 4340 c-3 -5 3 -10 14 -10 12 0 21 5 21 10 0 6 -6 10 -14 10 -8
0 -18 -4 -21 -10z"/>
<path d="M2066 4332 c46 -42 208 -152 217 -149 7 3 3 8 -8 13 -11 4 -39 26
-62 48 -23 23 -64 54 -92 69 -51 27 -74 35 -55 19z"/>
<path d="M1175 4320 c-16 -7 -17 -9 -3 -9 9 -1 20 4 23 9 7 11 7 11 -20 0z"/>
<path d="M1107 4269 c7 -7 15 -10 18 -7 3 3 -2 9 -12 12 -14 6 -15 5 -6 -5z"/>
<path d="M1675 4270 c-3 -5 -1 -10 4 -10 6 0 11 5 11 10 0 6 -2 10 -4 10 -3 0
-8 -4 -11 -10z"/>
<path d="M2220 4266 c0 -2 8 -10 18 -17 15 -13 16 -12 3 4 -13 16 -21 21 -21
13z"/>
<path d="M1255 4250 c-3 -6 1 -7 9 -4 18 7 21 14 7 14 -6 0 -13 -4 -16 -10z"/>
<path d="M1670 4236 c0 -2 7 -9 15 -16 13 -11 14 -10 9 4 -5 14 -24 23 -24 12z"/>
<path d="M1825 4230 c-3 -5 -1 -10 4 -10 6 0 11 5 11 10 0 6 -2 10 -4 10 -3 0
-8 -4 -11 -10z"/>
<path d="M1940 4219 c0 -5 -4 -7 -10 -4 -6 3 -7 -1 -4 -9 3 -9 10 -16 16 -16
5 0 6 5 3 10 -9 15 2 12 30 -6 14 -9 25 -24 26 -33 0 -10 2 -11 6 -3 2 6 10 9
16 6 7 -3 -5 10 -25 30 -38 36 -58 45 -58 25z"/>
<path d="M2045 4215 c11 -9 19 -19 18 -23 -1 -4 1 -9 3 -11 2 -2 4 3 4 12 0 9
-10 21 -22 27 -22 11 -23 11 -3 -5z"/>
<path d="M1595 4200 c-3 -6 3 -10 16 -10 12 0 31 -7 41 -17 10 -9 18 -11 18
-6 0 23 -63 52 -75 33z"/>
<path d="M1674 4184 c3 -9 6 -21 6 -27 0 -9 2 -9 8 -1 4 6 12 13 19 15 7 2 1
9 -13 16 -22 10 -25 10 -20 -3z"/>
<path d="M1240 4181 c0 -4 11 -6 25 -3 14 2 25 6 25 8 0 2 -11 4 -25 4 -14 0
-25 -4 -25 -9z"/>
<path d="M1693 4143 c-9 -3 -10 -10 -4 -21 5 -9 9 -21 9 -27 1 -16 22 -18 22
-2 0 9 6 18 13 20 7 4 6 6 -5 6 -9 1 -18 7 -20 14 -2 8 -9 12 -15 10z"/>
<path d="M2027 4137 c-3 -9 4 -19 19 -26 31 -14 44 -14 44 -1 0 6 -5 10 -12
10 -6 0 -19 7 -28 15 -15 14 -18 14 -23 2z"/>
<path d="M2127 4133 c3 -10 10 -23 14 -29 5 -6 6 -13 3 -17 -3 -3 0 -15 6 -27
6 -12 14 -19 17 -17 2 3 0 14 -6 25 -7 13 -7 22 -1 24 6 2 5 13 -3 27 -15 30
-40 41 -30 14z"/>
<path d="M1638 4099 c19 -17 36 -28 39 -25 7 6 -48 55 -62 55 -5 0 5 -13 23
-30z"/>
<path d="M1960 4115 c0 -11 26 -61 35 -67 14 -11 35 -10 35 1 0 5 -13 23 -29
40 -27 29 -41 38 -41 26z"/>
<path d="M1406 4085 c7 -17 44 -41 44 -28 0 4 -12 16 -25 26 -20 15 -24 15
-19 2z"/>
<path d="M2486 4088 c3 -5 13 -7 21 -4 8 4 11 1 7 -5 -6 -11 52 -79 68 -79 17
0 -1 64 -23 81 -24 18 -83 23 -73 7z"/>
<path d="M2062 4058 c11 -16 14 -27 8 -26 -24 6 -20 -19 4 -32 14 -7 27 -20
29 -29 3 -9 5 -5 6 9 0 14 -8 42 -18 62 -11 19 -18 38 -16 40 2 2 -4 4 -15 4
-18 0 -17 -1 2 -28z"/>
<path d="M2614 4063 c4 -7 6 -20 2 -28 -3 -8 -1 -15 4 -15 18 0 19 18 2 37 -9
10 -13 13 -8 6z"/>
<path d="M2257 4051 c6 -25 19 -35 27 -22 3 4 -3 16 -14 26 -18 16 -18 16 -13
-4z"/>
<path d="M2325 4050 c10 -11 20 -20 23 -20 3 0 -3 9 -13 20 -10 11 -20 20 -23
20 -3 0 3 -9 13 -20z"/>
<path d="M1825 4040 c-3 -5 1 -10 10 -10 9 0 13 5 10 10 -3 6 -8 10 -10 10 -2
0 -7 -4 -10 -10z"/>
<path d="M1470 4019 c0 -5 5 -7 10 -4 6 3 10 8 10 11 0 2 -4 4 -10 4 -5 0 -10
-5 -10 -11z"/>
<path d="M1730 4010 c0 -21 34 -55 58 -57 12 -2 22 2 22 8 0 5 -3 8 -7 6 -13
-7 -55 12 -49 22 3 5 -1 14 -9 21 -12 10 -15 10 -15 0z"/>
<path d="M1650 4000 c-9 -6 -10 -10 -3 -10 6 0 15 5 18 10 8 12 4 12 -15 0z"/>
<path d="M1570 3975 c-15 -18 1 -20 18 -3 9 9 16 8 30 -5 26 -24 39 -21 17 3
-21 24 -48 26 -65 5z"/>
<path d="M2042 3980 c9 -6 19 -23 23 -39 10 -45 29 -56 44 -25 6 14 7 23 2 19
-6 -3 -20 8 -32 25 -13 16 -30 30 -38 30 -14 -1 -14 -2 1 -10z"/>
<path d="M1400 3960 c0 -5 5 -10 11 -10 5 0 7 5 4 10 -3 6 -8 10 -11 10 -2 0
-4 -4 -4 -10z"/>
<path d="M1855 3950 c-3 -5 1 -10 10 -10 9 0 13 5 10 10 -3 6 -8 10 -10 10 -2
0 -7 -4 -10 -10z"/>
<path d="M1905 3950 c3 -5 8 -10 11 -10 2 0 4 5 4 10 0 6 -5 10 -11 10 -5 0
-7 -4 -4 -10z"/>
<path d="M1675 3930 c-19 -8 -19 -9 3 -9 12 -1 22 4 22 9 0 6 -1 10 -2 9 -2 0
-12 -4 -23 -9z"/>
<path d="M1773 3918 c0 -7 15 -23 34 -35 30 -20 32 -20 23 -3 -21 40 -57 63
-57 38z"/>
<path d="M1877 3889 c7 -7 15 -10 18 -7 3 3 -2 9 -12 12 -14 6 -15 5 -6 -5z"/>
<path d="M1672 3856 c2 -22 9 -41 16 -44 9 -3 11 4 6 25 -12 50 -24 61 -22 19z"/>
<path d="M2445 3850 c3 -5 11 -10 16 -10 6 0 7 5 4 10 -3 6 -11 10 -16 10 -6
0 -7 -4 -4 -10z"/>
<path d="M2530 3810 c14 -26 56 -54 70 -45 5 3 10 18 10 33 0 19 -3 23 -9 13
-7 -11 -14 -11 -41 3 -42 20 -43 20 -30 -4z"/>
<path d="M1840 3804 c0 -8 5 -12 10 -9 6 4 8 11 5 16 -9 14 -15 11 -15 -7z"/>
<path d="M2791 3784 c0 -11 3 -14 6 -6 3 7 2 16 -1 19 -3 4 -6 -2 -5 -13z"/>
<path d="M1850 3765 c0 -7 6 -17 13 -23 10 -9 13 -6 13 12 0 12 -6 23 -13 23
-7 0 -13 -6 -13 -12z"/>
<path d="M2800 3736 c0 -2 7 -9 15 -16 13 -11 14 -10 9 4 -5 14 -24 23 -24 12z"/>
<path d="M2846 3643 c3 -10 17 -27 32 -38 l26 -19 -19 34 c-22 37 -46 52 -39
23z"/>
<path d="M2854 3419 c-3 -6 -3 -13 0 -16 3 -4 6 -1 6 5 0 6 7 9 15 6 8 -4 15
-4 15 -1 0 11 -30 16 -36 6z"/>
<path d="M2950 3416 c0 -9 30 -14 35 -6 4 6 -3 10 -14 10 -12 0 -21 -2 -21 -4z"/>
<path d="M2945 3380 c-3 -5 -1 -10 4 -10 6 0 11 5 11 10 0 6 -2 10 -4 10 -3 0
-8 -4 -11 -10z"/>
<path d="M2900 3369 c0 -5 5 -7 10 -4 6 3 10 8 10 11 0 2 -4 4 -10 4 -5 0 -10
-5 -10 -11z"/>
<path d="M2942 3338 c-16 -16 -15 -28 1 -28 7 0 13 9 14 20 2 23 1 24 -15 8z"/>
<path d="M2985 3280 c4 -6 11 -8 16 -5 14 9 11 15 -7 15 -8 0 -12 -5 -9 -10z"/>
<path d="M3056 2935 c-9 -23 -8 -25 9 -25 17 0 19 9 6 28 -7 11 -10 10 -15 -3z"/>
<path d="M3130 2824 c0 -17 17 -36 24 -26 3 5 -1 15 -9 22 -8 7 -15 9 -15 4z"/>
<path d="M3220 2680 c-9 -6 -10 -10 -3 -10 6 0 15 5 18 10 8 12 4 12 -15 0z"/>
<path d="M3307 2529 c7 -7 15 -10 18 -7 3 3 -2 9 -12 12 -14 6 -15 5 -6 -5z"/>
<path d="M1843 2319 c4 -14 9 -51 13 -82 5 -46 4 -57 -8 -57 -8 0 -19 5 -26
12 -9 9 -12 4 -12 -22 0 -49 13 -68 35 -50 9 7 14 22 12 32 -3 11 3 24 15 32
20 14 20 16 4 65 -9 27 -16 57 -16 65 0 8 -5 18 -11 22 -8 5 -10 0 -6 -17z"/>
<path d="M1894 2301 c8 -42 13 -48 27 -34 9 9 6 19 -11 40 l-23 28 7 -34z"/>
<path d="M1761 2194 c0 -11 3 -14 6 -6 3 7 2 16 -1 19 -3 4 -6 -2 -5 -13z"/>
<path d="M1770 2157 c0 -8 3 -35 6 -61 6 -37 9 -44 20 -35 18 15 18 43 0 59
-8 6 -13 17 -10 25 3 7 1 16 -5 20 -6 3 -11 0 -11 -8z"/>
<path d="M1706 2134 c-4 -9 -4 -19 -1 -22 2 -3 7 3 11 12 4 9 4 19 1 22 -2 3
-7 -3 -11 -12z"/>
<path d="M3560 2133 c0 -15 18 -35 23 -27 3 5 -1 15 -9 22 -8 7 -14 9 -14 5z"/>
<path d="M3555 2080 c10 -11 20 -20 23 -20 3 0 -3 9 -13 20 -10 11 -20 20 -23
20 -3 0 3 -9 13 -20z"/>
<path d="M1662 2070 c1 -14 0 -51 0 -84 l-2 -59 -19 24 c-10 13 -21 31 -24 39
-3 8 -6 -5 -6 -30 l-1 -45 -28 45 c-25 42 -27 43 -30 20 -1 -14 -8 -36 -15
-49 -9 -19 -9 -25 0 -28 9 -3 10 -10 3 -23 -6 -11 -6 -21 -1 -24 12 -8 71 14
71 25 0 5 8 13 18 16 26 10 102 76 102 89 0 6 9 14 19 17 15 4 18 11 14 28
-12 51 -37 63 -47 24 -9 -34 -19 -31 -39 8 -15 30 -16 30 -15 7z"/>
<path d="M3590 2053 c0 -5 5 -15 10 -23 8 -12 10 -11 10 8 0 12 -4 22 -10 22
-5 0 -10 -3 -10 -7z"/>
<path d="M3998 2003 c7 -3 16 -2 19 1 4 3 -2 6 -13 5 -11 0 -14 -3 -6 -6z"/>
<path d="M4517 1961 c4 -17 2 -20 -11 -15 -20 8 -21 -3 -2 -22 19 -19 27 -18
19 3 -12 32 15 3 41 -43 14 -26 26 -48 26 -50 0 -1 -12 0 -27 2 -28 5 -28 5
12 -38 22 -23 43 -45 46 -48 3 -3 13 -21 22 -40 l17 -35 -28 31 c-15 17 -36
34 -47 38 -18 6 -19 5 -3 -7 10 -8 14 -17 10 -21 -4 -4 0 -6 8 -4 11 2 14 -4
12 -21 -2 -13 1 -21 6 -17 6 3 8 -2 5 -13 -3 -10 0 -22 6 -25 6 -4 11 -3 11 3
0 6 7 8 15 5 8 -4 12 -10 10 -15 -3 -5 3 -16 15 -26 11 -10 20 -23 20 -31 0
-8 -7 -6 -22 8 -30 28 -37 16 -8 -15 13 -14 27 -22 32 -17 11 11 17 91 8 97
-10 6 0 48 14 57 7 5 4 8 -7 8 -10 0 -15 4 -12 10 3 5 0 7 -9 4 -11 -4 -14 0
-10 19 3 18 -3 32 -21 48 -14 13 -51 58 -82 99 -75 99 -73 96 -66 71z"/>
<path d="M3717 1956 c-6 -14 4 -21 26 -17 9 1 9 -13 0 -22 -3 -4 -12 -2 -20 4
-14 13 -16 9 -7 -15 3 -9 13 -16 22 -16 8 0 12 3 9 7 -4 3 -2 12 5 20 9 11 7
19 -9 34 -18 18 -21 19 -26 5z"/>
<path d="M3966 1951 c-4 -5 3 -7 14 -4 23 6 26 13 6 13 -8 0 -17 -4 -20 -9z"/>
<path d="M3593 1924 c-7 -15 -10 -31 -7 -35 11 -18 20 -8 22 26 3 42 1 43 -15
9z"/>
<path d="M1471 1913 c-1 -18 -7 -36 -15 -40 -9 -5 -12 -19 -9 -40 5 -30 6 -31
34 -21 39 14 44 24 24 55 -10 14 -21 38 -25 52 -8 25 -8 25 -9 -6z"/>
<path d="M4005 1880 c-3 -6 1 -7 9 -4 18 7 21 14 7 14 -6 0 -13 -4 -16 -10z"/>
<path d="M3704 1859 c0 -10 4 -19 8 -19 4 0 8 6 8 14 0 8 -4 17 -8 20 -4 2 -8
-4 -8 -15z"/>
<path d="M3590 1860 c-9 -6 -10 -10 -3 -10 6 0 15 5 18 10 8 12 4 12 -15 0z"/>
<path d="M3904 1855 c-17 -13 -15 -13 21 -4 49 14 56 19 24 19 -14 0 -34 -7
-45 -15z"/>
<path d="M3651 1833 c1 -5 0 -10 -1 -13 -8 -20 -3 -67 6 -63 7 2 10 13 7 24
-3 10 -1 19 5 19 6 0 8 9 5 20 -5 18 -25 30 -22 13z"/>
<path d="M3830 1805 c0 -8 2 -15 4 -15 2 0 6 7 10 15 3 8 1 15 -4 15 -6 0 -10
-7 -10 -15z"/>
<path d="M3997 1803 c-16 -8 -26 -17 -23 -20 5 -6 76 24 76 32 0 9 -25 3 -53
-12z"/>
<path d="M3893 1737 c-54 -43 -64 -63 -16 -32 38 25 90 75 78 74 -5 0 -33 -19
-62 -42z"/>
<path d="M3546 1731 c-3 -5 1 -14 8 -20 10 -9 16 -9 21 -1 4 6 4 14 1 17 -3 4
-6 1 -6 -6 0 -7 -5 -9 -10 -6 -6 4 -8 11 -5 16 4 5 4 9 1 9 -3 0 -7 -4 -10 -9z"/>
<path d="M4036 1732 c-2 -4 11 -9 30 -10 23 -2 33 1 29 8 -7 12 -52 14 -59 2z"/>
<path d="M3709 1713 c-13 -16 -12 -17 4 -4 16 13 21 21 13 21 -2 0 -10 -8 -17
-17z"/>
<path d="M3995 1720 c3 -5 8 -10 11 -10 2 0 4 5 4 10 0 6 -5 10 -11 10 -5 0
-7 -4 -4 -10z"/>
<path d="M3766 1705 c-10 -8 -22 -12 -27 -10 -4 3 -10 1 -13 -4 -7 -12 22 -43
34 -36 4 3 11 -2 14 -11 6 -15 8 -15 26 1 19 17 20 17 21 -1 0 -10 3 -14 5 -7
8 18 -16 55 -31 49 -22 -8 -28 11 -8 23 10 6 14 10 8 10 -5 0 -19 -6 -29 -14z"/>
<path d="M4062 1683 c-20 -14 -25 -14 -33 -2 -7 11 -9 11 -9 0 0 -9 -8 -12
-27 -8 -33 6 -143 -13 -143 -25 0 -5 8 -7 19 -3 16 5 91 13 171 19 14 1 38 -2
53 -6 20 -5 27 -3 24 5 -2 7 -10 12 -18 12 -8 1 -13 6 -11 13 3 15 2 15 -26
-5z"/>
<path d="M3986 1629 c3 -5 9 -7 14 -4 5 3 11 1 15 -5 4 -6 11 -8 16 -5 18 12
8 22 -21 23 -17 0 -28 -4 -24 -9z"/>
<path d="M3905 1619 c-4 -6 -13 -8 -21 -5 -8 3 -14 2 -14 -3 0 -18 125 -28
136 -10 4 7 -5 10 -27 9 -55 -3 -71 -1 -64 10 3 6 4 10 1 10 -3 0 -8 -5 -11
-11z"/>
<path d="M3840 1601 c0 -6 5 -13 10 -16 6 -3 10 1 10 9 0 9 -4 16 -10 16 -5 0
-10 -4 -10 -9z"/>
<path d="M4120 1581 c-8 -6 -17 -8 -21 -5 -4 2 -10 1 -13 -4 -8 -14 27 -10 49
4 22 15 9 19 -15 5z"/>
<path d="M4130 1539 c0 -5 5 -7 10 -4 6 3 10 8 10 11 0 2 -4 4 -10 4 -5 0 -10
-5 -10 -11z"/>
<path d="M4004 1518 c3 -15 26 -23 26 -8 0 6 -4 9 -9 6 -5 -4 -12 -1 -14 4 -3
6 -4 5 -3 -2z"/>
<path d="M4056 1522 c-3 -6 -1 -14 5 -17 15 -10 25 3 12 16 -7 7 -13 7 -17 1z"/>
<path d="M4103 1485 c0 -8 4 -12 9 -9 5 3 6 10 3 15 -9 13 -12 11 -12 -6z"/>
<path d="M4447 1453 c-3 -5 1 -19 8 -32 l13 -24 0 27 c0 26 -12 43 -21 29z"/>
<path d="M4775 1420 c9 -16 18 -30 21 -30 3 0 2 5 -1 10 -3 6 1 10 9 10 19 0
21 16 4 26 -7 4 -8 3 -4 -4 4 -7 2 -12 -4 -12 -6 0 -13 7 -16 15 -4 8 -10 15
-15 15 -5 0 -3 -13 6 -30z"/>
<path d="M4475 1281 c-6 -11 13 -26 22 -17 4 3 0 6 -8 6 -11 0 -11 2 1 10 9 6
10 10 3 10 -6 0 -14 -4 -18 -9z"/>
<path d="M4550 1135 c0 -8 4 -15 10 -15 5 0 7 7 4 15 -4 8 -8 15 -10 15 -2 0
-4 -7 -4 -15z"/>
<path d="M4790 1139 c0 -5 12 -9 27 -9 30 0 27 9 -6 15 -11 2 -21 0 -21 -6z"/>
<path d="M4631 1089 c-1 -17 5 -29 15 -33 13 -5 14 -3 6 6 -5 7 -12 22 -15 33
-4 16 -5 14 -6 -6z"/>
<path d="M4825 1101 c-3 -6 -2 -11 4 -11 5 0 8 -12 5 -27 -3 -15 0 -30 8 -34
21 -14 25 -10 20 19 -7 36 -28 67 -37 53z"/>
<path d="M4788 1054 c24 -17 39 -14 27 5 -3 6 -16 11 -28 11 l-21 0 22 -16z"/>
<path d="M4618 978 c13 -26 17 -29 20 -15 2 10 -2 24 -8 32 -22 26 -29 16 -12
-17z"/>
<path d="M0 765 c0 -8 4 -15 10 -15 5 0 7 7 4 15 -4 8 -8 15 -10 15 -2 0 -4
-7 -4 -15z"/>
<path d="M5020 729 c0 -5 5 -7 10 -4 6 3 10 8 10 11 0 2 -4 4 -10 4 -5 0 -10
-5 -10 -11z"/>
<path d="M0 664 c0 -8 5 -12 10 -9 6 3 10 10 10 16 0 5 -4 9 -10 9 -5 0 -10
-7 -10 -16z"/>
<path d="M112 568 c3 -7 13 -15 22 -16 12 -3 17 1 14 10 -3 7 -13 15 -22 16
-12 3 -17 -1 -14 -10z"/>
<path d="M855 570 c3 -5 8 -10 11 -10 2 0 4 5 4 10 0 6 -5 10 -11 10 -5 0 -7
-4 -4 -10z"/>
<path d="M100 533 c0 -16 16 -28 39 -31 18 -2 22 2 17 14 -3 8 -6 18 -6 20 0
2 -11 4 -25 4 -14 0 -25 -3 -25 -7z"/>
<path d="M23 508 c-18 -23 -26 -90 -11 -99 8 -6 9 -12 3 -16 -15 -12 -17 -33
-3 -31 7 2 12 -3 13 -9 0 -7 3 -13 8 -13 4 0 12 0 17 0 6 0 4 13 -5 29 -8 17
-12 32 -7 34 12 7 76 21 86 18 11 -2 -19 45 -47 77 -23 25 -40 28 -54 10z"/>
<path d="M118 413 c-36 -9 -11 -33 35 -33 21 0 21 -1 -3 -20 -25 -19 -25 -19
-5 -34 11 -8 33 -18 49 -22 16 -3 24 -9 18 -13 -5 -3 -12 -17 -13 -30 -3 -18
-11 -25 -31 -28 -19 -3 -28 1 -28 10 0 8 -7 20 -15 27 -13 11 -14 10 -9 -4 6
-15 1 -17 -27 -14 -27 2 -33 7 -31 21 4 21 -26 47 -45 40 -15 -6 -18 -43 -3
-43 6 0 10 9 10 21 0 11 5 17 10 14 17 -11 11 -50 -10 -63 -19 -11 -20 -21
-18 -93 3 -78 4 -81 33 -97 17 -9 32 -20 35 -24 3 -3 18 -10 33 -13 19 -5 27
-3 28 6 2 26 -3 44 -14 51 -8 5 -6 8 4 8 30 0 30 38 1 61 -24 18 -27 19 -30 4
-2 -9 2 -22 8 -30 10 -12 9 -15 -4 -15 -9 0 -16 4 -16 9 0 5 -12 11 -27 13
-31 4 -52 52 -26 62 8 3 11 1 8 -4 -7 -11 -7 -11 50 -16 67 -6 70 -7 76 -16 9
-14 38 2 38 20 1 52 15 84 43 98 34 17 33 36 -3 44 -19 5 -24 13 -24 35 0 22
-8 35 -34 52 -19 13 -37 22 -40 22 -3 -1 -14 -3 -23 -6z m47 -223 c3 -5 1 -10
-4 -10 -6 0 -11 5 -11 10 0 6 2 10 4 10 3 0 8 -4 11 -10z"/>
<path d="M860 189 c0 -167 2 -191 14 -169 7 14 9 30 4 36 -4 6 -8 80 -7 163 1
84 -2 155 -5 158 -3 4 -6 -81 -6 -188z"/>
<path d="M280 340 c-13 -8 -13 -11 3 -27 16 -17 17 -16 15 10 -1 15 -3 27 -3
27 0 0 -7 -5 -15 -10z"/>
<path d="M5058 343 c6 -2 18 -2 25 0 6 3 1 5 -13 5 -14 0 -19 -2 -12 -5z"/>
<path d="M326 300 c-21 -9 -34 -20 -28 -24 6 -3 9 -24 8 -46 -2 -22 0 -40 3
-41 29 -3 45 -9 51 -19 5 -8 15 -8 34 -1 23 9 25 13 14 31 -7 10 -19 21 -28
24 -11 3 -9 6 8 11 12 4 22 8 22 10 0 15 -24 65 -34 68 -7 3 -29 -3 -50 -13z"/>
<path d="M5040 230 c-8 -5 -10 -10 -5 -10 6 0 17 5 25 10 8 5 11 10 5 10 -5 0
-17 -5 -25 -10z"/>
<path d="M279 176 c0 0 -2 -13 -4 -28 -3 -22 2 -28 27 -37 17 -6 39 -11 49
-11 12 0 16 -5 13 -15 -8 -20 -62 -19 -85 1 -15 14 -19 13 -39 -13 l-22 -28
26 -3 c32 -4 34 -17 4 -27 -22 -8 -22 -8 4 -12 15 -2 36 1 48 7 14 7 26 8 39
0 11 -5 36 -10 57 -10 36 0 37 1 20 19 -11 12 -15 25 -10 33 4 7 4 10 -1 6
-14 -13 -37 13 -25 27 15 18 -6 60 -39 76 -21 11 -59 20 -62 15z"/>
<path d="M5055 150 c-3 -6 1 -7 9 -4 18 7 21 14 7 14 -6 0 -13 -4 -16 -10z"/>
<path d="M5015 110 c-3 -5 1 -10 10 -10 9 0 13 5 10 10 -3 6 -8 10 -10 10 -2
0 -7 -4 -10 -10z"/>
<path d="M423 88 c-2 -18 0 -20 7 -8 12 18 13 30 2 30 -4 0 -9 -10 -9 -22z"/>
<path d="M457 93 c-4 -3 -7 -26 -7 -50 l0 -43 59 0 c33 0 62 4 65 8 3 5 -15
18 -39 30 -24 11 -46 30 -50 41 -6 21 -16 26 -28 14z"/>
<path d="M1317 35 c-3 -5 11 -10 30 -11 18 0 32 4 30 9 -4 14 -56 15 -60 2z"/>
<path d="M0 20 c0 -13 7 -20 20 -20 26 0 26 16 0 30 -17 9 -20 8 -20 -10z"/>
<path d="M1308 3 c7 -3 16 -2 19 1 4 3 -2 6 -13 5 -11 0 -14 -3 -6 -6z"/>
</g>
</svg>
